<?xml version="1.0" encoding="iso-8859-1"?>
<!-- Generator: Adobe Illustrator 18.1.1, SVG Export Plug-In . SVG Version: 6.00 Build 0)  -->
<svg version="1.1" id="Capa_1" xmlns="http://www.w3.org/2000/svg" xmlns:xlink="http://www.w3.org/1999/xlink" x="0px" y="0px"
	 viewBox="0 0 57.078 57.078" style="enable-background:new 0 0 57.078 57.078;" xml:space="preserve">
<g>
	<g>
		<path style="fill:#010002;" d="M30.696,14.371c-0.102-0.042-0.186-0.104-0.266-0.167c-0.158-0.129-0.318-0.273-0.502-0.436
			c-0.089-0.084-0.201-0.153-0.354-0.204c-0.155-0.05-0.816-0.135-0.99-0.021c0,0.153,0.188,0.601,0.188,0.601s0.175,0.356,0.3,0.49
			c0.244,0.27,0.583,0.503,0.997,0.584c0.203,0.042,0.422,0.04,0.625-0.003c0.205-0.043,0.391-0.127,0.547-0.23
			c0.156-0.106,0.289-0.223,0.4-0.35c0.11-0.128,0.198-0.275,0.235-0.449c-0.169,0.048-0.308,0.109-0.442,0.161
			c-0.132,0.053-0.267,0.089-0.395,0.089C30.91,14.442,30.793,14.417,30.696,14.371z"/>
		<path style="fill:#010002;" d="M27.24,13.769c-0.184,0.163-0.344,0.307-0.502,0.436c-0.081,0.063-0.165,0.125-0.265,0.167
			c-0.099,0.045-0.216,0.07-0.344,0.066c-0.129,0-0.262-0.037-0.395-0.089c-0.135-0.052-0.273-0.112-0.442-0.161
			c0.038,0.173,0.124,0.321,0.236,0.449c0.112,0.127,0.245,0.244,0.401,0.35c0.157,0.103,0.342,0.187,0.546,0.23
			c0.203,0.042,0.422,0.045,0.626,0.003c0.414-0.082,0.75-0.315,0.994-0.584c0.126-0.133,0.299-0.49,0.299-0.49
			s0.188-0.448,0.188-0.601c-0.171-0.115-0.833-0.03-0.988,0.02C27.44,13.616,27.329,13.685,27.24,13.769z"/>
		<path style="fill:#010002;" d="M24.74,10.797v2.072h7.688v-2.072c0.232-0.348,0.393-0.781,0.45-1.262
			c0.651-0.741,1.04-1.711,1.04-2.76c0-2.297-1.846-4.164-4.117-4.164c-0.206,0-0.423,0.018-0.643,0.055L29.02,2.525
			c-0.002-0.002-0.005-0.004-0.007-0.007V1.667h0.826V0.799h-0.826V0h-0.857v0.799h-0.831v0.868h0.831v0.848
			c-0.004,0.003-0.008,0.007-0.011,0.01l-0.14,0.141c-0.217-0.036-0.432-0.054-0.638-0.054c-2.27,0-4.116,1.867-4.116,4.164
			c0,1.042,0.392,2.009,1.037,2.749C24.346,10.008,24.506,10.446,24.74,10.797z M29.02,3.715l0.151-0.154
			c0.084-0.084,0.14-0.191,0.165-0.309c0.158-0.021,0.312-0.033,0.465-0.033c0.081,0,0.16,0.007,0.238,0.012v0.332h1.26
			c1.189,0.57,2.018,1.794,2.018,3.211c0,0.631-0.168,1.232-0.463,1.754c-0.199-1.103-0.934-1.924-1.812-1.924
			c-0.662,0-1.243,0.467-1.573,1.168c-0.282-0.094-0.54-0.105-0.71-0.094V3.865h-0.001C28.854,3.837,28.946,3.789,29.02,3.715z
			 M28.62,8.046h0.002c0.02-0.005,0.335-0.071,0.714,0.05c-0.104,0.313-0.162,0.658-0.162,1.023c0,1.388,0.834,2.514,1.865,2.514
			c0.16,0,0.313-0.03,0.464-0.081v0.381h-5.84v-0.381c0.149,0.051,0.303,0.081,0.464,0.081c1.03,0,1.864-1.125,1.864-2.514
			c0-0.365-0.058-0.71-0.162-1.023c0.38-0.121,0.694-0.056,0.715-0.05C28.57,8.052,28.595,8.052,28.62,8.046z M26.258,3.403
			c-0.08,0.05-0.157,0.102-0.229,0.16h1.393v-0.34c0.133,0.002,0.269,0.01,0.406,0.029c0.024,0.116,0.083,0.224,0.165,0.309
			l0.152,0.154c0.076,0.076,0.168,0.124,0.267,0.151v3.813c-0.172-0.011-0.429,0-0.711,0.094c-0.331-0.701-0.911-1.168-1.573-1.168
			c-0.878,0-1.611,0.818-1.811,1.917c-0.296-0.521-0.465-1.119-0.465-1.748C23.851,5.207,24.861,3.874,26.258,3.403z"/>
		<path style="fill:#010002;" d="M37.944,34.275c1.724,0,1.989-1.418,1.989-3.161c0-4.381-1.161-13.17-5.554-14.345
			c-0.861-0.23-5.308-2.135-11.59-0.191c-4.393,1.175-5.554,10.107-5.554,14.488c0,1.742,0.04,3.072,1.989,3.162
			c1.95,0.088,2.297-6.188,2.805-7.239c0.005,5.356,0.622,19.544,0.622,19.544v7.913c0,1.454,1.165,2.632,2.602,2.632
			c1.436,0,2.601-1.178,2.601-2.632l0.063-14.87h1.428l-0.063,14.87c0,1.454,1.166,2.632,2.602,2.632s2.601-1.178,2.601-2.632
			v-7.912c0,0,0.609-14.496,0.614-19.833C35.604,27.754,35.949,33.887,37.944,34.275z M21.717,22.004c0,0,1.506-5.137,6.9-5.186
			s7.002,5.189,7.002,5.189L21.717,22.004z"/>
		<circle style="fill:#010002;" cx="28.975" cy="18.976" r="0.395"/>
		<circle style="fill:#010002;" cx="24.619" cy="20.786" r="0.404"/>
		<circle style="fill:#010002;" cx="26.538" cy="19.901" r="0.404"/>
		<circle style="fill:#010002;" cx="30.232" cy="20.786" r="0.404"/>
		<ellipse style="fill:#010002;" cx="31.651" cy="19.901" rx="0.397" ry="0.404"/>
		<circle style="fill:#010002;" cx="28.003" cy="20.786" r="0.404"/>
		<circle style="fill:#010002;" cx="25.018" cy="18.976" r="0.404"/>
		<circle style="fill:#010002;" cx="33.585" cy="20.643" r="0.334"/>
		<circle style="fill:#010002;" cx="31.651" cy="18.186" r="0.395"/>
		<ellipse style="fill:#010002;" cx="27.47" cy="18.042" rx="0.533" ry="0.539"/>
		<polygon style="fill:#010002;" points="15.018,45.036 21.506,45.036 21.269,32.658 		"/>
		<polygon style="fill:#010002;" points="35.807,32.658 35.571,45.036 42.059,45.036 		"/>
	</g>
</g>
<g>
</g>
<g>
</g>
<g>
</g>
<g>
</g>
<g>
</g>
<g>
</g>
<g>
</g>
<g>
</g>
<g>
</g>
<g>
</g>
<g>
</g>
<g>
</g>
<g>
</g>
<g>
</g>
<g>
</g>
</svg>
